<svg width="67" height="26" viewBox="0 0 67 26" fill="none" xmlns="http://www.w3.org/2000/svg">
<g filter="url(#filter0_d_2_8)">
<rect x="4" width="59" height="18" fill="#213343"/>
<path d="M11.084 12.096C10.476 12.096 9.964 12.036 9.548 11.916C9.132 11.788 8.816 11.648 8.6 11.496C8.376 11.344 8.264 11.192 8.264 11.04C8.264 10.912 8.308 10.768 8.396 10.608C8.484 10.44 8.588 10.292 8.708 10.164C8.828 10.036 8.928 9.972 9.008 9.972C9.048 9.972 9.092 9.988 9.14 10.02C9.196 10.044 9.264 10.076 9.344 10.116C9.504 10.196 9.7 10.284 9.932 10.38C10.172 10.476 10.452 10.524 10.772 10.524C10.948 10.524 11.12 10.504 11.288 10.464C11.464 10.416 11.608 10.332 11.72 10.212C11.84 10.084 11.9 9.908 11.9 9.684C11.9 9.444 11.808 9.252 11.624 9.108C11.44 8.964 11.204 8.836 10.916 8.724C10.636 8.612 10.348 8.484 10.052 8.34C9.844 8.244 9.644 8.132 9.452 8.004C9.26 7.868 9.084 7.708 8.924 7.524C8.772 7.34 8.652 7.12 8.564 6.864C8.476 6.6 8.432 6.288 8.432 5.928C8.432 5.352 8.572 4.888 8.852 4.536C9.132 4.176 9.488 3.916 9.92 3.756C10.36 3.588 10.812 3.504 11.276 3.504C11.564 3.504 11.828 3.524 12.068 3.564C12.308 3.604 12.52 3.66 12.704 3.732C12.896 3.796 13.052 3.872 13.172 3.96C13.348 4.088 13.436 4.216 13.436 4.344C13.436 4.448 13.4 4.584 13.328 4.752C13.264 4.92 13.18 5.068 13.076 5.196C12.972 5.324 12.872 5.388 12.776 5.388C12.736 5.388 12.68 5.372 12.608 5.34C12.544 5.308 12.456 5.272 12.344 5.232C12.24 5.192 12.112 5.16 11.96 5.136C11.816 5.104 11.644 5.088 11.444 5.088C11.132 5.088 10.896 5.124 10.736 5.196C10.576 5.268 10.468 5.356 10.412 5.46C10.356 5.564 10.328 5.664 10.328 5.76C10.328 5.976 10.388 6.156 10.508 6.3C10.628 6.436 10.784 6.552 10.976 6.648C11.168 6.744 11.38 6.84 11.612 6.936C11.86 7.04 12.112 7.156 12.368 7.284C12.624 7.404 12.86 7.556 13.076 7.74C13.292 7.924 13.464 8.156 13.592 8.436C13.728 8.716 13.796 9.06 13.796 9.468C13.796 9.956 13.716 10.368 13.556 10.704C13.404 11.04 13.196 11.312 12.932 11.52C12.668 11.72 12.376 11.868 12.056 11.964C11.736 12.052 11.412 12.096 11.084 12.096ZM17.012 12.024C16.524 12.024 16.28 11.936 16.28 11.76C16.28 11.728 16.284 11.696 16.292 11.664C16.308 11.624 16.32 11.584 16.328 11.544L18.968 3.828C19.032 3.66 19.26 3.576 19.652 3.576H20.276C20.676 3.576 20.904 3.66 20.96 3.828L23.6 11.544C23.624 11.624 23.636 11.696 23.636 11.76C23.636 11.936 23.436 12.024 23.036 12.024H22.508C22.332 12.024 22.184 12.008 22.064 11.976C21.944 11.936 21.868 11.868 21.836 11.772L21.356 10.308H18.524L18.044 11.772C18.012 11.86 17.948 11.924 17.852 11.964C17.756 12.004 17.636 12.024 17.492 12.024H17.012ZM19.04 8.724H20.84L20.156 6.588C20.116 6.46 20.08 6.332 20.048 6.204C20.024 6.076 20 5.948 19.976 5.82H19.928C19.904 5.948 19.88 6.076 19.856 6.204C19.832 6.332 19.796 6.46 19.748 6.588L19.04 8.724ZM30.8034 9.996C30.5954 9.996 30.4354 9.92 30.3234 9.768L28.8474 7.128C28.7994 7.048 28.7514 6.972 28.7034 6.9C28.6634 6.82 28.6234 6.74 28.5834 6.66L28.5354 6.672C28.5354 6.768 28.5354 6.864 28.5354 6.96C28.5354 7.056 28.5354 7.156 28.5354 7.26V11.64C28.5354 11.896 28.2954 12.024 27.8154 12.024H27.4674C26.9874 12.024 26.7474 11.896 26.7474 11.64V3.96C26.7474 3.704 26.9874 3.576 27.4674 3.576H28.1034C28.2794 3.576 28.4314 3.6 28.5594 3.648C28.6954 3.696 28.7954 3.78 28.8594 3.9L30.8514 7.452C30.8674 7.484 30.8874 7.516 30.9114 7.548C30.9354 7.58 30.9554 7.616 30.9714 7.656C30.9874 7.616 31.0034 7.58 31.0194 7.548C31.0434 7.516 31.0634 7.484 31.0794 7.452L33.1074 3.9C33.1714 3.78 33.2674 3.696 33.3954 3.648C33.5314 3.6 33.6874 3.576 33.8634 3.576H34.4874C34.9674 3.576 35.2074 3.704 35.2074 3.96V11.64C35.2074 11.896 34.9674 12.024 34.4874 12.024H34.1394C33.6594 12.024 33.4194 11.896 33.4194 11.64V7.26C33.4194 7.156 33.4194 7.056 33.4194 6.96C33.4194 6.864 33.4194 6.768 33.4194 6.672L33.3714 6.66C33.3314 6.74 33.2874 6.82 33.2394 6.9C33.1994 6.972 33.1554 7.048 33.1074 7.128L31.6314 9.768C31.5194 9.92 31.3594 9.996 31.1514 9.996H30.8034Z" fill="white"/>
<line x1="8" y1="15" x2="23" y2="15" stroke="#D44325" stroke-width="2"/>
<rect x="44" width="19" height="18" fill="#D44325"/>
</g>
<defs>
<filter id="filter0_d_2_8" x="0" y="0" width="67" height="26" filterUnits="userSpaceOnUse" color-interpolation-filters="sRGB">
<feFlood flood-opacity="0" result="BackgroundImageFix"/>
<feColorMatrix in="SourceAlpha" type="matrix" values="0 0 0 0 0 0 0 0 0 0 0 0 0 0 0 0 0 0 127 0" result="hardAlpha"/>
<feOffset dy="4"/>
<feGaussianBlur stdDeviation="2"/>
<feComposite in2="hardAlpha" operator="out"/>
<feColorMatrix type="matrix" values="0 0 0 0 0 0 0 0 0 0 0 0 0 0 0 0 0 0 0.25 0"/>
<feBlend mode="normal" in2="BackgroundImageFix" result="effect1_dropShadow_2_8"/>
<feBlend mode="normal" in="SourceGraphic" in2="effect1_dropShadow_2_8" result="shape"/>
</filter>
</defs>
</svg>
